<svg width="131" height="131" viewBox="0 0 131 131" fill="none" xmlns="http://www.w3.org/2000/svg">
<path d="M81.5567 27.849C82.7938 28.111 83.1979 28.6416 83.9145 29.5953C84.0486 29.7738 84.1897 30.0165 84.3609 30.1557C83.9385 30.0633 83.5202 29.9361 83.1028 29.8229C82.9929 29.3621 82.8416 28.9771 82.5397 28.6068C82.3239 28.3421 81.9243 27.947 81.5681 27.9109L81.5567 27.849Z" fill="#931D2D"/>
<path d="M93.2227 33.5463C93.8655 33.8192 94.5552 34.1676 94.8408 34.8524C94.9306 35.0673 94.96 35.285 94.8886 35.5095C94.4211 35.3663 93.9603 35.2322 93.4806 35.1336C93.5396 34.5563 93.4326 34.0807 93.2227 33.5463Z" fill="#931D2D"/>
<path d="M92.5688 32.7801C92.7974 33.0291 93.0157 33.2794 93.2232 33.5463C93.4332 34.0807 93.5402 34.5563 93.4811 35.1336C92.9805 35.006 92.4806 34.8758 91.9813 34.7431C92.1449 34.085 92.2965 33.4026 92.5688 32.7801Z" fill="#F7CCAA"/>
<path d="M106.381 41.911C107.119 42.4221 107.582 43.1131 107.739 44.0004C107.853 44.6415 107.75 45.278 107.604 45.9045C107.237 47.4742 106.778 49.0227 106.355 50.5779L104.521 57.4212L98.1524 81.183L92.0125 104.085L90.0886 111.231C89.7587 112.467 89.4714 113.729 89.098 114.951C88.9361 115.482 88.7187 115.984 88.397 116.437C88.3519 116.501 88.3051 116.565 88.2568 116.627C88.2085 116.688 88.1586 116.749 88.1072 116.809C88.0559 116.868 88.003 116.926 87.9488 116.983C87.8944 117.04 87.8387 117.095 87.7817 117.149C87.7246 117.203 87.6663 117.256 87.6065 117.307C87.5468 117.358 87.4859 117.407 87.4237 117.455C87.3615 117.503 87.2982 117.55 87.2337 117.595C87.1691 117.64 87.1035 117.683 87.0368 117.724C86.9702 117.766 86.9025 117.806 86.8339 117.844C86.7651 117.882 86.6955 117.918 86.625 117.953C86.5545 117.988 86.4832 118.021 86.4111 118.052C86.3389 118.083 86.266 118.112 86.1924 118.14C86.1188 118.167 86.0445 118.193 85.9695 118.216C85.8947 118.24 85.8192 118.262 85.7432 118.282C85.6672 118.302 85.5908 118.32 85.5139 118.336C85.437 118.352 85.3597 118.366 85.2821 118.378C84.4709 118.506 83.7429 118.39 82.9512 118.206C81.8318 117.947 80.7251 117.608 79.6172 117.303L74.1829 115.828L56.3682 111.051L37.4482 105.981L31.4371 104.374C30.5289 104.132 29.5999 103.933 28.7014 103.66C28.0041 103.449 27.2956 103.182 26.705 102.746C26.1206 102.315 25.7499 101.759 25.3894 101.138C25.2758 100.942 25.1744 100.721 25.0302 100.547C29.5688 101.857 34.1523 102.992 38.715 104.214L65.7401 111.454L76.6509 114.379L79.7394 115.207C80.9235 115.533 82.2475 116.067 83.4883 116.022C84.6417 115.98 85.8621 115.4 86.6379 114.548C87.2687 113.855 87.5686 113.154 87.8442 112.268C88.2317 111.023 88.5385 109.746 88.8729 108.485L90.5898 102.018L95.4917 83.7723L102.864 56.2721L104.878 48.7598L105.673 45.8134C106.025 44.5136 106.443 43.2733 106.381 41.911Z" fill="#931D2D"/>
<path d="M69.5022 26.1699C69.8669 25.4744 70.2586 24.8188 70.7933 24.2381C70.8602 24.1644 70.929 24.0923 70.9995 24.0221C71.0701 23.9517 71.1423 23.8832 71.2163 23.8165C71.2902 23.7497 71.3657 23.6848 71.4428 23.6218C71.52 23.5588 71.5987 23.4978 71.6788 23.4387C71.7591 23.3796 71.8407 23.3225 71.9237 23.2674C72.0067 23.2125 72.091 23.1595 72.1766 23.1086C72.2623 23.0577 72.3491 23.009 72.4372 22.9625C72.5252 22.916 72.6144 22.8716 72.7046 22.8294C72.7949 22.7873 72.8861 22.7474 72.9784 22.7098C73.0706 22.6722 73.1637 22.6369 73.2577 22.6039C73.3517 22.5709 73.4464 22.5403 73.5419 22.512C73.6374 22.4837 73.7336 22.4578 73.8304 22.4343C73.9271 22.4107 74.0244 22.3896 74.1222 22.3709C74.2201 22.3522 74.3184 22.3359 74.417 22.3221C74.5157 22.3083 74.6146 22.2969 74.7137 22.288C74.8129 22.279 74.9123 22.2726 75.0118 22.2686C75.1142 22.2639 75.2165 22.2618 75.3189 22.2622C75.4213 22.2626 75.5237 22.2656 75.626 22.271C75.7283 22.2765 75.8304 22.2845 75.9322 22.2951C76.0341 22.3056 76.1357 22.3187 76.2369 22.3343C76.3381 22.3498 76.4389 22.3679 76.5392 22.3885C76.6396 22.4091 76.7394 22.4321 76.8386 22.4577C76.9377 22.4832 77.0362 22.5111 77.134 22.5415C77.2318 22.5719 77.3288 22.6048 77.425 22.64C77.5212 22.6752 77.6164 22.7128 77.7108 22.7527C77.8051 22.7927 77.8984 22.8349 77.9906 22.8795C78.0827 22.924 78.1738 22.9708 78.2637 23.0199C78.3536 23.069 78.4422 23.1203 78.5296 23.1738C78.6169 23.2272 78.7029 23.2828 78.7876 23.3406C78.8722 23.3983 78.9553 23.4581 79.0369 23.52C79.1185 23.5818 79.1985 23.6457 79.277 23.7115C79.3555 23.7773 79.4323 23.8451 79.5074 23.9147C80.5318 24.8791 81.5085 26.4011 81.558 27.849L81.5694 27.911C81.9256 27.9471 82.3252 28.3421 82.541 28.6069C82.8429 28.9771 82.9942 29.3622 83.104 29.823C83.5215 29.9361 83.9398 30.0633 84.3621 30.1558C85.2254 30.3876 92.4346 32.2398 92.6449 32.4069C92.6302 32.54 92.6111 32.6515 92.57 32.7801C92.2977 33.4026 92.1461 34.085 91.9825 34.7431C92.4817 34.8759 92.9817 35.0061 93.4823 35.1337C93.962 35.2323 94.4228 35.3663 94.8903 35.5095L99.3567 36.6968C100.825 37.0759 102.464 37.3194 103.798 38.0635C103.893 38.1158 103.986 38.1712 104.077 38.2298C104.168 38.2884 104.257 38.3501 104.343 38.4149C104.43 38.4796 104.515 38.5472 104.597 38.6177C104.679 38.6882 104.759 38.7615 104.836 38.8375C104.913 38.9135 104.987 38.992 105.059 39.0731C105.131 39.1542 105.2 39.2377 105.266 39.3234C105.332 39.4093 105.395 39.4973 105.455 39.5874C105.515 39.6775 105.572 39.7696 105.625 39.8637C105.992 40.5028 106.184 41.2068 106.383 41.911C106.444 43.2733 106.026 44.5137 105.674 45.8134L104.879 48.7598L102.865 56.2721L95.493 83.7724L90.5911 102.018L88.8742 108.485C88.5398 109.746 88.233 111.023 87.8454 112.268C87.5699 113.154 87.27 113.855 86.6392 114.548C85.8634 115.4 84.6429 115.98 83.4896 116.022C82.2488 116.067 80.9248 115.533 79.7407 115.207L76.6522 114.379L65.7414 111.454L38.7163 104.214C34.1536 102.992 29.5701 101.857 25.0315 100.547C24.2908 100.118 23.7716 99.5248 23.4686 98.7219C23.0015 97.4848 23.3041 96.1762 23.8305 95.0104C24.0805 94.3681 24.2285 93.6591 24.4077 92.9923L25.3405 89.5164L28.4306 78.0136L38.3679 41.1062L40.9973 31.2991L41.7549 28.4501C41.9495 27.7196 42.1238 26.9527 42.4315 26.2606C42.7379 25.5716 43.355 24.979 44.0003 24.6036C44.4995 24.3133 45.1295 24.1243 45.7082 24.1484C47.0138 24.2029 49.2326 24.9817 50.5568 25.349C52.8794 25.9962 55.2079 26.6209 57.5424 27.2231L58.5666 23.1941C60.9628 23.8578 63.364 24.5023 65.7704 25.1277C67.0068 25.4572 68.3 25.7356 69.5022 26.1699Z" fill="#044A5D"/>
<path d="M81.5683 27.9109C81.9245 27.947 82.3241 28.3421 82.5399 28.6068C82.8418 28.9771 82.9931 29.3622 83.103 29.8229C82.5688 29.7037 82.0384 29.5694 81.5118 29.42L81.5683 27.9109Z" fill="#FBF7DF"/>
<path d="M58.0293 31.6373L88.7818 39.8796L88.4032 41.2909C78.1495 38.6035 67.9138 35.8494 57.6961 33.0283L58.0293 31.6373Z" fill="#4A746F"/>
<path d="M59.7325 25.2922C60.6318 25.448 61.5247 25.7488 62.4011 26.0039C62.7956 26.9247 63.3066 27.7366 63.9978 28.4658C66.6603 31.2744 72.338 33.8257 75.9569 35.2734C78.0609 36.1242 80.1908 36.9044 82.3464 37.6139C84.5022 38.3235 86.679 38.961 88.8769 39.5264L88.7824 39.8795L58.0299 31.6372C58.6014 29.5223 59.1222 27.3966 59.7325 25.2922Z" fill="#1F98A6"/>
<path d="M85.2383 96.1053C85.1096 96.8844 84.8676 97.6569 84.6622 98.4191L83.6766 102.074C83.4706 102.834 83.2691 103.596 83.0723 104.359C82.9256 104.926 82.807 105.525 82.5734 106.064C82.387 106.493 82.1129 106.902 81.7266 107.174C80.9613 107.714 80.064 107.751 79.1747 107.58C77.5956 107.278 76.0347 106.765 74.4839 106.343C72.8829 105.907 71.2673 105.531 69.6786 105.05C70.0938 104.732 70.5761 104.483 71.0282 104.222C72.1309 103.586 73.264 103.008 74.3675 102.377L85.2383 96.1053Z" fill="#1F98A6"/>
<path d="M70.9707 28.2998C71.0422 27.0073 71.3232 26.0255 72.3082 25.1336C73.1874 24.3374 74.4544 23.9369 75.6321 24.011C76.858 24.088 77.9153 24.6555 78.7172 25.5766C79.4212 26.3854 79.8582 27.4873 79.7843 28.568C79.7777 28.6531 79.7686 28.7378 79.7569 28.8221C79.7452 28.9066 79.7309 28.9907 79.7142 29.0743C79.6974 29.1579 79.6782 29.2409 79.6564 29.3233C79.6347 29.4057 79.6104 29.4875 79.5837 29.5685C79.557 29.6494 79.5279 29.7295 79.4965 29.8088C79.465 29.888 79.4311 29.9662 79.3948 30.0433C79.3587 30.1205 79.3202 30.1966 79.2794 30.2714C79.2386 30.3463 79.1955 30.4199 79.1503 30.4922L90.5174 33.5363C89.973 35.525 89.5092 37.5652 88.8774 39.5264C86.6795 38.961 84.5027 38.3235 82.3469 37.6139C80.1913 36.9043 78.0614 36.1242 75.9574 35.2734C72.3384 33.8256 66.6608 31.2744 63.9983 28.4658C63.307 27.7366 62.7961 26.9247 62.4016 26.0038L70.9707 28.2998Z" fill="#64D0D0"/>
<path d="M75.6987 25.7893C76.1453 25.8881 76.5229 26.0326 76.8812 26.3268C77.3527 26.714 77.6599 27.2722 77.7006 27.8843C77.7379 28.4462 77.5433 28.9738 77.1632 29.387C76.6109 29.9875 75.9145 30.1234 75.1412 30.1701C74.7016 30.0691 74.3085 29.9099 73.9609 29.6152C73.9323 29.5912 73.9043 29.5665 73.8769 29.5411C73.8496 29.5158 73.8228 29.4898 73.7968 29.4631C73.7707 29.4364 73.7453 29.4091 73.7205 29.3811C73.6958 29.3532 73.6718 29.3246 73.6485 29.2955C73.6252 29.2663 73.6026 29.2366 73.5808 29.2063C73.559 29.1761 73.5379 29.1453 73.5176 29.114C73.4973 29.0827 73.4777 29.0509 73.459 29.0186C73.4403 28.9863 73.4224 28.9536 73.4052 28.9205C73.3882 28.8873 73.3719 28.8537 73.3565 28.8198C73.341 28.7857 73.3264 28.7514 73.3128 28.7167C73.299 28.682 73.2861 28.647 73.2741 28.6116C73.2621 28.5763 73.251 28.5407 73.2408 28.5048C73.2306 28.4689 73.2212 28.4328 73.2128 28.3965C73.2044 28.3602 73.1969 28.3236 73.1902 28.2868C73.1836 28.2501 73.1779 28.2132 73.1731 28.1762C73.1683 28.1392 73.1644 28.1021 73.1615 28.0649C73.1591 28.0308 73.1575 27.9966 73.1568 27.9624C73.1561 27.9282 73.1563 27.8941 73.1573 27.8599C73.1584 27.8257 73.1603 27.7915 73.1631 27.7575C73.1659 27.7234 73.1695 27.6894 73.1741 27.6554C73.1786 27.6216 73.184 27.5878 73.1903 27.5542C73.1966 27.5206 73.2037 27.4871 73.2117 27.4538C73.2197 27.4206 73.2285 27.3876 73.2381 27.3548C73.2478 27.3219 73.2583 27.2894 73.2696 27.2571C73.2809 27.2248 73.2931 27.1929 73.3061 27.1612C73.319 27.1296 73.3328 27.0983 73.3473 27.0673C73.3619 27.0364 73.3772 27.0058 73.3933 26.9756C73.4095 26.9455 73.4263 26.9157 73.444 26.8864C73.4616 26.8571 73.48 26.8283 73.4992 26.7999C73.5183 26.7716 73.5381 26.7437 73.5586 26.7163C73.5792 26.689 73.6004 26.6622 73.6223 26.6359C73.6443 26.6097 73.6668 26.584 73.6901 26.5589C74.233 25.9626 74.9366 25.8404 75.6987 25.7893Z" fill="#F36238"/>
<path d="M75.4296 26.4789C75.6755 26.5161 75.9286 26.5624 76.1447 26.6919C76.1846 26.7157 76.2233 26.7414 76.2607 26.769C76.298 26.7966 76.334 26.8261 76.3684 26.8573C76.4029 26.8885 76.4357 26.9214 76.467 26.9559C76.4981 26.9903 76.5275 27.0262 76.5551 27.0636C76.5828 27.101 76.6085 27.1397 76.6323 27.1797C76.6561 27.2196 76.6778 27.2606 76.6975 27.3027C76.7172 27.3448 76.7348 27.3878 76.7503 27.4317C76.7657 27.4755 76.7789 27.52 76.7899 27.5652C76.8013 27.6129 76.8101 27.6611 76.8165 27.7097C76.8229 27.7583 76.8267 27.8071 76.8279 27.8561C76.8292 27.9052 76.8279 27.9541 76.824 28.003C76.8201 28.0519 76.8138 28.1004 76.8049 28.1486C76.796 28.1969 76.7846 28.2445 76.7707 28.2915C76.7568 28.3386 76.7405 28.3847 76.7218 28.43C76.7031 28.4753 76.6821 28.5196 76.6588 28.5628C76.6355 28.6059 76.61 28.6477 76.5823 28.6882C76.3004 29.0995 75.9056 29.2323 75.4391 29.3103C75.1182 29.3133 74.8298 29.1731 74.578 28.9769C74.2887 28.7513 74.1074 28.3942 74.0659 28.033C74.0605 27.9882 74.0573 27.9433 74.0563 27.8982C74.0553 27.853 74.0565 27.808 74.06 27.763C74.0635 27.718 74.0692 27.6733 74.0772 27.6289C74.085 27.5844 74.0951 27.5405 74.1073 27.497C74.1196 27.4536 74.1339 27.4109 74.1504 27.3689C74.1668 27.3269 74.1853 27.2858 74.2059 27.2456C74.2264 27.2054 74.2488 27.1663 74.2732 27.1284C74.2976 27.0904 74.3238 27.0537 74.3518 27.0183C74.6398 26.6582 74.9868 26.5372 75.4296 26.4789Z" fill="#FBF7DF"/>
<path d="M94.8891 35.5095L99.3555 36.6968C100.824 37.0759 102.463 37.3194 103.797 38.0635C103.892 38.1158 103.984 38.1712 104.075 38.2298C104.167 38.2884 104.255 38.3501 104.342 38.4149C104.429 38.4796 104.513 38.5472 104.596 38.6177C104.678 38.6882 104.757 38.7615 104.835 38.8375C104.912 38.9135 104.986 38.992 105.058 39.0731C105.13 39.1542 105.199 39.2377 105.265 39.3234C105.331 39.4093 105.394 39.4973 105.454 39.5874C105.514 39.6775 105.57 39.7696 105.624 39.8637C105.99 40.5028 106.183 41.2068 106.381 41.911C106.443 43.2733 106.025 44.5136 105.673 45.8134L104.878 48.7598L102.864 56.2721L95.4918 83.7723L90.5899 102.018L88.873 108.485C88.5385 109.746 88.2318 111.023 87.8442 112.268C87.5687 113.154 87.2688 113.855 86.638 114.548C85.8622 115.4 84.6417 115.98 83.4884 116.022C82.2476 116.067 80.9236 115.533 79.7395 115.207L76.6509 114.379L65.7402 111.454L38.7151 104.214C34.1524 102.992 29.5689 101.857 25.0302 100.547C24.2896 100.118 23.7704 99.5247 23.4674 98.7219C23.0003 97.4848 23.3029 96.1762 23.8293 95.0104C24.0014 95.9866 23.9329 96.8564 24.4309 97.76C24.9909 98.7759 25.8551 99.2878 26.942 99.5987C28.38 100.01 29.8382 100.358 31.285 100.738L36.7694 102.222L64.2805 109.59L76.9088 112.96L80.5021 113.95C81.2 114.141 81.9161 114.372 82.6318 114.481C83.4127 114.6 84.1425 114.454 84.8308 114.065C85.5759 113.645 86.0593 112.937 86.3505 112.15C86.6265 111.405 86.7976 110.59 87.0038 109.821L88.1639 105.484L92.022 90.9133L104.476 44.4618C104.817 43.202 105.145 41.9145 104.439 40.7092C104.115 40.1555 103.599 39.6433 103.022 39.356C101.914 38.8038 100.395 38.5539 99.188 38.237L91.5881 36.2568C91.7312 35.7554 91.8622 35.2508 91.9813 34.7431C92.4805 34.8759 92.9804 35.0061 93.4811 35.1337C93.9608 35.2323 94.4216 35.3663 94.8891 35.5095Z" fill="#FBF7DF"/>
<path d="M68.3278 104.651C65.0854 103.713 61.7977 102.906 58.5342 102.044L42.5777 97.7925L35.749 95.9383C34.7314 95.6612 33.6185 95.484 32.6464 95.0774C31.873 94.7539 31.2156 94.2338 30.7835 93.5099C30.3047 92.7078 30.1661 91.7758 30.3027 90.8595C30.4034 90.1842 30.627 89.5055 30.8055 88.8463L31.7116 85.4825L34.7778 74.0272L41.4871 48.9705C42.9011 43.7754 44.2866 38.5728 45.6437 33.3626C45.9466 32.173 46.2303 30.825 47.3883 30.1714C47.91 29.877 48.5527 29.7884 49.1442 29.825C50.108 29.8848 51.0981 30.2557 52.0284 30.5108C53.4642 30.8995 54.8975 31.2968 56.3284 31.7029C56.1158 32.58 55.874 33.4491 55.6032 34.3101L89.6717 43.4105L90.2897 41.0941L93.9949 42.0772C94.8789 42.3027 95.8123 42.4785 96.6575 42.8243C97.3703 43.116 98.1303 43.6426 98.4339 44.377C98.7064 45.036 98.7436 45.7245 98.6103 46.4204C98.3862 47.5901 98.0183 48.7566 97.7099 49.907L96.0539 56.0799L90.8839 75.3317L87.0677 89.4398C86.7793 90.4552 86.5 91.4731 86.2295 92.4933C86.0496 93.1899 85.9189 93.9737 85.6463 94.6375C85.4808 95.0859 85.2893 95.6302 85.2388 96.1053L74.368 102.377C73.2645 103.008 72.1314 103.586 71.0287 104.222C70.5766 104.483 70.0943 104.732 69.6791 105.05C69.2364 104.941 68.7401 104.845 68.3278 104.651Z" fill="#FBF7DF"/>
<path d="M47.317 89.7698C49.7766 90.4026 52.2078 91.1353 54.6772 91.7398L54.2859 93.2015C51.8392 92.5442 49.3888 91.8266 46.9207 91.258L47.317 89.7698Z" fill="#1F98A6"/>
<path d="M77.5512 50.8908C78.1752 51.001 78.7985 51.1975 79.411 51.3616L82.5084 52.1933L82.1172 53.6558L75.8419 51.9727L70.8279 50.6297L71.2054 49.2164C73.3089 49.8064 75.4392 50.3288 77.5512 50.8908Z" fill="#1F98A6"/>
<path d="M47.1153 72.8047C47.5743 73.1988 47.9507 74.0695 48.1712 74.6314C47.1304 75.0662 46.1225 75.6912 45.1466 76.2559L41.9731 78.0675C41.5891 77.4514 41.2876 76.7674 40.953 76.1223C40.5779 75.498 40.2097 74.8698 39.8484 74.2374C40.4263 73.9552 40.9804 73.6165 41.5385 73.2971C41.9163 73.9585 42.3317 74.6008 42.7131 75.2614C44.2011 74.6702 45.7207 73.6072 47.1153 72.8047Z" fill="#931D2D"/>
<path d="M50.1596 61.4924C50.4902 61.6606 51.0812 62.8829 51.2822 63.238C49.1632 64.3868 47.0804 65.6104 44.9747 66.7848C44.6567 66.1562 44.2865 65.5485 43.9356 64.9373L42.8703 62.8939L44.5745 61.9078C44.9623 62.6037 45.3502 63.2913 45.767 63.9705C47.2248 63.1329 48.7074 62.3422 50.1596 61.4924Z" fill="#931D2D"/>
<path d="M66.406 70.3263L66.4739 70.3711C66.5846 70.7148 66.2806 71.4477 66.1769 71.8011L53.2321 68.3342C53.2206 68.3196 53.2069 68.3067 53.1974 68.2906C53.067 68.0675 53.3964 67.1614 53.4743 66.8901L66.406 70.3263Z" fill="#1F98A6"/>
<path d="M58.8248 80.4514C59.4194 80.5565 60.0117 80.7422 60.5953 80.8986L63.5103 81.6815L63.1048 83.1896L54.7838 80.9603C53.2083 80.5278 51.6187 80.1467 50.0419 79.7167L50.4411 78.2318C53.2229 79.0059 56.0329 79.7109 58.8248 80.4514Z" fill="#1F98A6"/>
<path d="M48.1467 86.8017L61.17 90.269C61.0823 90.7806 60.9567 91.2596 60.7559 91.739C59.5169 91.4495 58.2868 91.0804 57.0561 90.7546L51.0656 89.218C49.9535 88.9342 48.8463 88.5917 47.7198 88.3718L48.1467 86.8017Z" fill="#1F98A6"/>
<path d="M69.551 55.2879L90.467 60.9175C90.3666 61.3906 90.2623 61.8748 90.0741 62.3215L69.1667 56.7213L69.551 55.2879Z" fill="#1F98A6"/>
<path d="M70.3398 52.2266L91.2504 57.8555C91.1744 58.3398 91.0344 58.813 90.908 59.2863C90.1339 59.2152 89.3747 58.9058 88.6268 58.6972L85.0222 57.7241L70.0051 53.7048C70.1418 53.2195 70.2348 52.7196 70.3398 52.2266Z" fill="#1F98A6"/>
<path d="M51.3145 75.1975C54.7234 76.1963 58.1955 77.045 61.6279 77.9647L84.295 84.0428C84.1807 84.4814 84.0989 84.9962 83.9038 85.4032L83.8091 85.421L50.8957 76.6255C51.0184 76.163 51.1009 75.6222 51.3145 75.1975Z" fill="#1F98A6"/>
<path d="M54.3739 63.8525C56.0454 64.3425 57.7243 64.8054 59.4107 65.2412C62.1528 65.9902 64.9005 66.7177 67.654 67.4238L87.308 72.6928C87.1959 73.1719 87.057 73.6461 86.9273 74.1208L53.9568 65.319C54.0828 64.8265 54.2219 64.3376 54.3739 63.8525Z" fill="#1F98A6"/>
<path d="M38.9737 82.8565C39.6186 82.96 40.2777 83.1647 40.9107 83.3286C42.0839 83.6321 43.3506 83.9011 44.4477 84.4245C44.5856 84.6324 44.7366 84.8373 44.7663 85.0924C44.8358 85.6871 43.5407 90.5657 43.1904 90.9425C42.9378 91.2142 42.5607 91.2471 42.2115 91.2573C40.9878 90.9693 37.4824 90.2809 36.6846 89.6222C36.4995 89.4693 36.4518 89.2726 36.4308 89.0433C36.3675 88.352 37.5539 83.6886 38.0219 83.1921C38.2712 82.9277 38.6262 82.8569 38.9737 82.8565Z" fill="#402038"/>
<path d="M39.3584 83.7157C40.9397 84.1133 42.546 84.4696 44.0575 85.091C43.8158 86.2386 43.028 89.7266 42.5259 90.6003C42.2307 90.5457 41.9347 90.4571 41.6437 90.3826C40.4235 90.0581 38.2206 89.5858 37.171 88.9686C37.1782 88.8073 37.1895 88.645 37.2187 88.486C37.3479 87.7825 37.602 87.0893 37.7859 86.398C37.9796 85.6694 38.11 84.8859 38.3759 84.1815C38.4482 83.9898 38.5348 83.7581 38.7073 83.6367C38.9248 83.5917 39.1455 83.6676 39.3584 83.7157Z" fill="#F36238"/>
<path d="M68.3275 104.651C68.3363 104.614 68.3455 104.578 68.3549 104.542L70.1394 97.8666C70.4659 96.6461 70.7594 95.0398 71.3089 93.9375C71.6349 93.2834 72.1097 92.7052 72.749 92.3382C73.4232 91.951 74.2025 91.8339 74.9704 91.8868C76.3271 91.9806 77.6917 92.5012 79.0012 92.8548L85.646 94.6376C85.4804 95.086 85.2889 95.6303 85.2384 96.1054L74.3677 102.377C73.2641 103.008 72.131 103.586 71.0284 104.222C70.5762 104.483 70.0939 104.732 69.6787 105.05C69.236 104.941 68.7398 104.845 68.3275 104.651Z" fill="url(#paint0_linear_1269_4078)"/>
<path d="M76.3462 93.4108C77.0779 93.5919 77.8025 93.8258 78.5312 94.0223L84.2634 95.5644L74.8849 100.914L69.8006 103.852L71.332 98.1258C71.6407 96.9723 71.8698 95.6531 72.4058 94.5866C72.4348 94.5277 72.4659 94.4698 72.4991 94.4131C72.5322 94.3564 72.5673 94.3009 72.6045 94.2467C72.6416 94.1925 72.6806 94.1397 72.7215 94.0882C72.7624 94.0368 72.8051 93.9869 72.8496 93.9385C72.894 93.8901 72.9401 93.8434 72.9879 93.7984C73.0357 93.7533 73.085 93.7099 73.1359 93.6684C73.1868 93.6268 73.2391 93.5871 73.2928 93.5493C73.3466 93.5115 73.4016 93.4756 73.4578 93.4417C74.457 92.8449 75.3095 93.1551 76.3462 93.4108Z" fill="#64D0D0"/>
<path d="M58.817 37.923C61.1287 38.1525 63.8063 39.883 65.2466 41.652C67.0311 43.8435 67.8437 46.7963 67.5389 49.5978C67.529 49.6825 67.518 49.767 67.5059 49.8513C67.4939 49.9357 67.4808 50.02 67.4666 50.104C67.4525 50.1881 67.4374 50.2719 67.4212 50.3556C67.405 50.4393 67.3878 50.5228 67.3695 50.606C67.3512 50.6893 67.3319 50.7723 67.3116 50.8551C67.2913 50.9379 67.27 51.0203 67.2476 51.1026C67.2253 51.1849 67.2019 51.2668 67.1775 51.3485C67.1531 51.4302 67.1277 51.5115 67.1013 51.5926C67.0749 51.6736 67.0475 51.7543 67.0191 51.8347C66.9907 51.9151 66.9613 51.9951 66.9309 52.0747C66.9006 52.1543 66.8692 52.2336 66.8368 52.3125C66.8045 52.3913 66.7712 52.4698 66.7369 52.5478C66.7027 52.6259 66.6675 52.7035 66.6313 52.7806C66.5951 52.8578 66.5579 52.9345 66.5199 53.0107C66.4818 53.087 66.4428 53.1628 66.4028 53.2381C66.3628 53.3134 66.322 53.3881 66.2801 53.4624C66.2383 53.5367 66.1956 53.6104 66.152 53.6837C66.1083 53.7569 66.0638 53.8295 66.0184 53.9016C65.9729 53.9738 65.9266 54.0453 65.8794 54.1163C65.8322 54.1872 65.7841 54.2576 65.7351 54.3274C65.6862 54.3972 65.6364 54.4663 65.5858 54.5349C65.5351 54.6034 65.4836 54.6714 65.4313 54.7387C65.379 54.806 65.3258 54.8726 65.2719 54.9385C65.2179 55.0045 65.1631 55.0697 65.1074 55.1344C65.0519 55.199 64.9955 55.2629 64.9383 55.3261C64.8811 55.3893 64.8232 55.4518 64.7644 55.5136C64.7057 55.5754 64.6463 55.6364 64.586 55.6967C64.5258 55.757 64.4648 55.8165 64.4031 55.8754C64.3414 55.9342 64.279 55.9922 64.2158 56.0495C64.1527 56.1067 64.0889 56.1632 64.0244 56.2189C63.9598 56.2745 63.8946 56.3294 63.8287 56.3835C63.7628 56.4376 63.6963 56.4908 63.629 56.5432C61.1913 58.4764 58.2523 59.0699 55.2076 58.7208C55.1628 58.7172 55.1178 58.7146 55.0734 58.7079C54.5931 58.635 54.0849 58.4507 53.63 58.284C51.5482 57.5212 49.7821 56.2389 48.4487 54.4645C48.3981 54.3974 48.3485 54.3297 48.2996 54.2614C48.2508 54.193 48.2028 54.1241 48.1556 54.0547C48.1086 53.9851 48.0623 53.915 48.0169 53.8444C47.9716 53.7737 47.9271 53.7025 47.8835 53.6307C47.8399 53.559 47.7972 53.4867 47.7554 53.4139C47.7135 53.341 47.6726 53.2677 47.6327 53.1939C47.5927 53.12 47.5536 53.0457 47.5154 52.9709C47.4774 52.8961 47.4402 52.8208 47.404 52.745C47.3677 52.6693 47.3324 52.5931 47.298 52.5165C47.2637 52.4398 47.2302 52.3628 47.1977 52.2854C47.1653 52.2079 47.1339 52.1301 47.1033 52.0519C47.0728 51.9736 47.0433 51.895 47.0147 51.816C46.9861 51.737 46.9586 51.6577 46.932 51.578C46.9055 51.4984 46.8799 51.4184 46.8553 51.3381C46.8307 51.2578 46.8071 51.1773 46.7846 51.0964C46.7619 51.0155 46.7404 50.9343 46.7198 50.8529C46.6993 50.7715 46.6797 50.6898 46.6612 50.6079C46.6426 50.526 46.6251 50.4439 46.6087 50.3615C46.5921 50.2792 46.5766 50.1966 46.5622 50.114C46.5478 50.0312 46.5344 49.9483 46.5221 49.8653C46.5097 49.7822 46.4983 49.699 46.488 49.6157C46.4777 49.5323 46.4684 49.4489 46.4602 49.3653C46.452 49.2817 46.4448 49.1981 46.4387 49.1143C46.4325 49.0306 46.4274 48.9468 46.4234 48.8628C46.4193 48.779 46.4163 48.6951 46.4143 48.6111C46.4123 48.5272 46.4114 48.4432 46.4116 48.3593C46.4117 48.2753 46.4128 48.1913 46.415 48.1073C46.4172 48.0234 46.4205 47.9395 46.4248 47.8557C46.4291 47.7718 46.4344 47.6879 46.4408 47.6042C46.4472 47.5205 46.4546 47.4369 46.463 47.3533C46.4715 47.2698 46.481 47.1863 46.4915 47.103C46.5021 47.0197 46.5137 46.9365 46.5263 46.8535C46.5384 46.7665 46.5516 46.6796 46.5659 46.5929C46.5802 46.5062 46.5955 46.4197 46.612 46.3334C46.6284 46.2471 46.6459 46.161 46.6644 46.075C46.683 45.9892 46.7027 45.9035 46.7233 45.8181C46.7441 45.7327 46.7658 45.6476 46.7886 45.5627C46.8115 45.4779 46.8354 45.3933 46.8603 45.3091C46.8852 45.2248 46.9112 45.1408 46.9382 45.0572C46.9653 44.9736 46.9933 44.8904 47.0224 44.8075C47.0515 44.7245 47.0816 44.6419 47.1128 44.5598C47.144 44.4776 47.1761 44.3959 47.2093 44.3146C47.2425 44.2332 47.2767 44.1522 47.3119 44.0717C47.3471 43.9911 47.3833 43.9111 47.4204 43.8315C47.4576 43.7518 47.4958 43.6727 47.535 43.5941C47.5741 43.5154 47.6143 43.4372 47.6554 43.3595C47.6965 43.2819 47.7386 43.2047 47.7816 43.1281C47.8247 43.0515 47.8686 42.9754 47.9135 42.8999C47.9585 42.8244 48.0043 42.7494 48.0511 42.675C48.0979 42.6007 48.1456 42.5269 48.1942 42.4537C48.2428 42.3805 48.2924 42.3079 48.3429 42.2359C48.3933 42.164 48.4446 42.0927 48.4968 42.022C48.549 41.9513 48.6021 41.8813 48.6561 41.812C48.71 41.7426 48.7648 41.6739 48.8204 41.6059C48.8761 41.5379 48.9326 41.4706 48.9899 41.404C49.0473 41.3374 49.1055 41.2715 49.1644 41.2064C49.2234 41.1413 49.2831 41.0769 49.3437 41.0132C49.4043 40.9496 49.4657 40.8867 49.5278 40.8245C49.59 40.7624 49.6529 40.7011 49.7166 40.6405C49.7803 40.58 49.8446 40.5202 49.9098 40.4612C49.975 40.4023 50.0409 40.3441 50.1075 40.2868C50.174 40.2295 50.2414 40.1731 50.3095 40.1174C50.3774 40.0618 50.4461 40.007 50.5155 39.953C50.5849 39.8991 50.6549 39.846 50.7256 39.7939C53.1012 38.0196 55.9198 37.499 58.817 37.923Z" fill="#931D2D"/>
<path d="M57.8622 42.2645C58.7113 42.4875 59.5567 42.724 60.3984 42.9738L59.1966 47.4563L63.8097 48.6939L62.9355 51.9738L58.3198 50.735L57.1766 54.992L56.3833 54.7799C55.4839 54.5253 54.5682 54.3193 53.6633 54.0841L54.8067 49.7953L50.3523 48.6013L51.2302 45.3236L55.7277 46.5015C56.0658 45.0014 56.4881 43.5172 56.8862 42.0319C57.2099 42.1146 57.537 42.1872 57.8622 42.2645Z" fill="#FBF7DF"/>
<defs>
<linearGradient id="paint0_linear_1269_4078" x1="72.8585" y1="92.364" x2="77.4466" y2="100.451" gradientUnits="userSpaceOnUse">
<stop stop-color="#221537"/>
<stop offset="1" stop-color="#092E4F"/>
</linearGradient>
</defs>
</svg>
