<svg width="56" height="55" viewBox="0 0 56 55" fill="none" xmlns="http://www.w3.org/2000/svg">
<path d="M13.1416 5.88724C9.41148 5.88724 6.3876 8.91112 6.3876 12.6413V13.9921C6.3876 15.4841 5.17805 16.6937 3.68599 16.6937C2.19393 16.6937 0.984375 15.4841 0.984375 13.9921V12.6413C0.984375 5.927 6.42737 0.484009 13.1416 0.484009H14.4924C15.9845 0.484009 17.1941 1.69356 17.1941 3.18562C17.1941 4.67768 15.9845 5.88724 14.4924 5.88724H13.1416Z" fill="white"/>
<path fill-rule="evenodd" clip-rule="evenodd" d="M25.1904 11.2905C23.3915 11.2904 21.8799 11.2904 20.6429 11.3915C19.3495 11.4971 18.1204 11.7266 16.9537 12.3211C15.1745 13.2276 13.728 14.6741 12.8214 16.4533C12.227 17.62 11.9975 18.8492 11.8918 20.1425C11.8437 20.7313 11.8185 21.3823 11.8053 22.0969H6.3876C4.89554 22.0969 3.68599 23.3065 3.68599 24.7985C3.68599 26.2906 4.89554 27.5001 6.3876 27.5001H49.6134C51.1055 27.5001 52.315 26.2906 52.315 24.7985C52.315 23.3065 51.1055 22.0969 49.6134 22.0969H44.1957C44.1825 21.3823 44.1573 20.7313 44.1092 20.1425C44.0035 18.8492 43.7741 17.62 43.1796 16.4533C42.273 14.6741 40.8265 13.2276 39.0473 12.3211C37.8806 11.7266 36.6515 11.4971 35.3582 11.3915C34.1212 11.2904 32.6095 11.2904 30.8106 11.2905H25.1904ZM38.7916 22.0969C38.78 21.5142 38.7596 21.0193 38.7239 20.5825C38.6455 19.6233 38.5069 19.1844 38.3653 18.9063C37.9768 18.1438 37.3568 17.5239 36.5943 17.1354C36.3162 16.9937 35.8773 16.8551 34.9182 16.7767C33.9274 16.6958 32.638 16.6937 30.7021 16.6937H25.2989C23.363 16.6937 22.0736 16.6958 21.0829 16.7767C20.1237 16.8551 19.6848 16.9937 19.4067 17.1354C18.6442 17.5239 18.0243 18.1438 17.6357 18.9063C17.4941 19.1844 17.3555 19.6233 17.2771 20.5825C17.2414 21.0193 17.221 21.5142 17.2094 22.0969H38.7916Z" fill="white"/>
<path d="M33.6083 43.7099L25.1904 43.7098C23.3917 43.7099 21.8797 43.7099 20.6429 43.6088C19.3495 43.5032 18.1204 43.2737 16.9537 42.6792C15.1745 41.7727 13.728 40.3261 12.8214 38.5469C12.7224 38.3526 12.6696 38.262 12.6012 38.1448C12.5589 38.0721 12.5105 37.9892 12.4415 37.8649C12.2568 37.5325 12.0568 37.1139 11.9374 36.5289C11.8399 36.0511 11.815 35.5465 11.8031 35.0511C11.7908 34.5399 11.7908 33.8548 11.7908 32.9463V32.9034C11.7908 31.4113 13.0004 30.2018 14.4924 30.2018C15.9845 30.2018 17.1941 31.4113 17.1941 32.9034C17.1941 33.8647 17.1943 34.4833 17.2048 34.9212C17.2097 35.1269 17.2167 35.2593 17.2223 35.3404C17.3106 35.4928 17.4813 35.7908 17.6357 36.0939C18.0243 36.8564 18.6442 37.4764 19.4067 37.8649C19.6848 38.0066 20.1237 38.1452 21.0829 38.2235C22.0736 38.3045 23.363 38.3066 25.2989 38.3066H33.4037C34.7619 38.3066 35.1264 38.2982 35.3885 38.2567C37.1225 37.9821 38.4824 36.6221 38.7571 34.8881C38.7986 34.626 38.807 34.2615 38.807 32.9034C38.807 31.4113 40.0165 30.2018 41.5086 30.2018C43.0006 30.2018 44.2102 31.4113 44.2102 32.9034L44.2102 33.1079C44.2107 34.1615 44.2111 34.9927 44.0938 35.7334C43.4529 39.7794 40.2797 42.9526 36.2337 43.5934C35.4931 43.7107 34.6619 43.7103 33.6083 43.7099Z" fill="white"/>
<path d="M55.0166 41.0082C55.0166 39.5161 53.8071 38.3066 52.315 38.3066C50.823 38.3066 49.6134 39.5161 49.6134 41.0082V42.359C49.6134 46.0892 46.5895 49.113 42.8594 49.113H41.5086C40.0165 49.113 38.807 50.3226 38.807 51.8147C38.807 53.3067 40.0165 54.5163 41.5086 54.5163H42.8594C49.5736 54.5163 55.0166 49.0733 55.0166 42.359V41.0082Z" fill="white"/>
<path d="M38.807 3.18562C38.807 1.69356 40.0165 0.484009 41.5086 0.484009H42.8594C49.5736 0.484009 55.0166 5.927 55.0166 12.6413V13.9921C55.0166 15.4841 53.8071 16.6937 52.315 16.6937C50.823 16.6937 49.6134 15.4841 49.6134 13.9921V12.6413C49.6134 8.91112 46.5895 5.88724 42.8594 5.88724H41.5086C40.0165 5.88724 38.807 4.67768 38.807 3.18562Z" fill="white"/>
<path d="M6.3876 41.0082C6.3876 39.5161 5.17805 38.3066 3.68599 38.3066C2.19393 38.3066 0.984375 39.5161 0.984375 41.0082V42.359C0.984375 49.0733 6.42737 54.5163 13.1416 54.5163H14.4924C15.9845 54.5163 17.1941 53.3067 17.1941 51.8147C17.1941 50.3226 15.9845 49.113 14.4924 49.113H13.1416C9.41148 49.113 6.3876 46.0892 6.3876 42.359V41.0082Z" fill="white"/>
</svg>
